<?xml version="1.0" encoding="UTF-8" standalone="no"?>
<!-- Created with Inkscape (http://www.inkscape.org/) -->

<svg
   width="99.21875mm"
   height="79.375mm"
   viewBox="0 0 99.21875 79.374997"
   version="1.1"
   id="svg835"
   sodipodi:docname="imagen-tarjeta-tipo-1.svg"
   inkscape:version="1.1.2 (0a00cf5339, 2022-02-04)"
   xmlns:inkscape="http://www.inkscape.org/namespaces/inkscape"
   xmlns:sodipodi="http://sodipodi.sourceforge.net/DTD/sodipodi-0.dtd"
   xmlns="http://www.w3.org/2000/svg"
   xmlns:svg="http://www.w3.org/2000/svg">
  <sodipodi:namedview
     id="namedview837"
     pagecolor="#505050"
     bordercolor="#eeeeee"
     borderopacity="1"
     inkscape:pageshadow="0"
     inkscape:pageopacity="0"
     inkscape:pagecheckerboard="0"
     inkscape:document-units="mm"
     showgrid="false"
     fit-margin-top="0"
     fit-margin-left="0"
     fit-margin-right="0"
     fit-margin-bottom="0"
     inkscape:zoom="1.4715122"
     inkscape:cx="5.7763706"
     inkscape:cy="123.00272"
     inkscape:window-width="1365"
     inkscape:window-height="741"
     inkscape:window-x="0"
     inkscape:window-y="1"
     inkscape:window-maximized="1"
     inkscape:current-layer="g4332" />
  <defs
     id="defs832" />
  <g
     inkscape:label="Capa 1"
     inkscape:groupmode="layer"
     id="layer1"
     transform="translate(-24.727315,-72.514846)">
    <g
       id="g4332"
       transform="translate(-31.069835,-4.1687482)">
      <rect
         style="fill:#ffcc00;stroke-width:0.491712;stroke-linecap:round;stroke-linejoin:round;paint-order:markers fill stroke;stop-color:#000000"
         id="rect918"
         width="99.21875"
         height="79.375"
         x="55.79715"
         y="76.683594" />
      <g
         aria-label="Andres"
         id="text1890"
         style="font-size:5.36369px;line-height:1.25;stroke-width:0.28734"
         transform="matrix(1.9327803,0,0,1.9327803,-98.525427,-108.08454)">
        <path
           d="m 98.127984,114.42245 -0.675262,2.26704 h 1.35299 z m -0.280948,-0.60718 h 0.564362 l 1.402278,4.55542 H 99.29614 l -0.335168,-1.1686 h -1.658583 l -0.335166,1.1686 h -0.524931 z"
           id="path3724"
           style="stroke-width:0.300855"
           sodipodi:nodetypes="ccccccccccccc" />
        <path
           d="m 102.80194,116.60025 v 1.77044 h -0.48189 v -1.75472 q 0,-0.41642 -0.16238,-0.62332 -0.16238,-0.2069 -0.48713,-0.2069 -0.39023,0 -0.61546,0.2488 -0.22524,0.2488 -0.22524,0.67832 v 1.65782 h -0.48451 v -2.93327 h 0.48451 v 0.45571 q 0.17286,-0.26452 0.40595,-0.39547 0.23571,-0.13095 0.54213,-0.13095 0.50546,0 0.76474,0.31428 0.25928,0.31166 0.25928,0.91926 z"
           id="path3726" />
        <path
           d="m 105.69331,115.88265 v -2.06738 h 0.48189 v 4.55542 h -0.48189 v -0.43999 c -0.10127,0.1746 -0.2296,0.30468 -0.38499,0.39023 -0.15365,0.0838 -0.33872,0.12571 -0.55523,0.12571 -0.35443,0 -0.6434,-0.14143 -0.86689,-0.42428 -0.22174,-0.28285 -0.33261,-0.65474 -0.33261,-1.11569 0,-0.46094 0.11087,-0.83283 0.33261,-1.11568 0.22349,-0.28285 0.51246,-0.42428 0.86689,-0.42428 0.21651,0 0.40158,0.0428 0.55523,0.12833 0.15539,0.0838 0.28372,0.21301 0.38499,0.38761 z m -1.64211,1.02402 c 0,0.35444 0.0725,0.63293 0.21738,0.83546 0.14666,0.20079 0.34745,0.30119 0.60236,0.30119 0.25492,0 0.45571,-0.1004 0.60237,-0.30119 0.14667,-0.20253 0.22,-0.48102 0.22,-0.83546 0,-0.35443 -0.0733,-0.63204 -0.22,-0.83283 -0.14666,-0.20254 -0.34745,-0.30381 -0.60237,-0.30381 -0.25491,0 -0.4557,0.10127 -0.60236,0.30381 -0.14492,0.20079 -0.21738,0.4784 -0.21738,0.83283 z"
           id="path3728"
           sodipodi:nodetypes="cccccccscscsccscscscscs" />
        <path
           d="m 108.86752,115.88789 q -0.0812,-0.0471 -0.17809,-0.0681 -0.0943,-0.0236 -0.20952,-0.0236 -0.40856,0 -0.62856,0.26714 -0.21737,0.26452 -0.21737,0.76213 v 1.5452 h -0.48451 v -2.93327 h 0.48451 v 0.45571 q 0.1519,-0.26714 0.39547,-0.39547 0.24356,-0.13095 0.59189,-0.13095 0.0498,0 0.10999,0.008 0.0602,0.005 0.13357,0.0183 z"
           id="path3730" />
        <path
           d="m 111.76412,116.78358 v 0.23571 h -2.21566 q 0.0314,0.49761 0.29856,0.75951 0.26976,0.25928 0.74904,0.25928 0.27761,0 0.53689,-0.0681 0.2619,-0.0681 0.51856,-0.20428 v 0.45571 q -0.25928,0.10999 -0.53166,0.16761 -0.27237,0.0576 -0.5526,0.0576 -0.70189,0 -1.11307,-0.40856 -0.40857,-0.40856 -0.40857,-1.10522 0,-0.72022 0.38761,-1.14187 0.39023,-0.42428 1.05022,-0.42428 0.59189,0 0.93498,0.38237 0.3457,0.37975 0.3457,1.0345 z m -0.48189,-0.14142 q -0.005,-0.39547 -0.22261,-0.63118 -0.21476,-0.23571 -0.57094,-0.23571 -0.40333,0 -0.64689,0.22785 -0.24095,0.22786 -0.27762,0.64166 z"
           id="path3732" />
        <path
           d="m 114.42502,115.52385 v 0.4557 q -0.20428,-0.10476 -0.42428,-0.15714 -0.21999,-0.0524 -0.4557,-0.0524 -0.3588,0 -0.53952,0.11 -0.17809,0.11 -0.17809,0.32999 0,0.16762 0.12833,0.26452 0.12833,0.0943 0.51595,0.18071 l 0.16499,0.0367 q 0.51332,0.10999 0.72808,0.31166 0.21738,0.19904 0.21738,0.55784 0,0.40856 -0.32476,0.64689 -0.32213,0.23833 -0.88784,0.23833 -0.2357,0 -0.49237,-0.0471 -0.25404,-0.0445 -0.53689,-0.13619 v -0.49761 q 0.26714,0.13881 0.52642,0.20952 0.25928,0.0681 0.51332,0.0681 0.34047,0 0.5238,-0.11524 0.18333,-0.11785 0.18333,-0.32999 0,-0.19643 -0.13357,-0.30119 -0.13095,-0.10476 -0.5788,-0.20166 l -0.16761,-0.0393 q -0.44785,-0.0943 -0.64689,-0.28809 -0.19905,-0.19643 -0.19905,-0.53689 0,-0.41381 0.29333,-0.63904 0.29333,-0.22523 0.83284,-0.22523 0.26714,0 0.50284,0.0393 0.23571,0.0393 0.43476,0.11786 z"
           id="path3734" />
      </g>
    </g>
  </g>
</svg>
