<?xml version="1.0" encoding="UTF-8" standalone="no"?>
<!-- Created with Inkscape (http://www.inkscape.org/) -->

<svg
   width="18.552114mm"
   height="6.3499999mm"
   viewBox="0 0 18.552114 6.3499999"
   version="1.1"
   id="svg5"
   inkscape:version="1.1.2 (0a00cf5339, 2022-02-04)"
   sodipodi:docname="kakao-logo.svg"
   xmlns:inkscape="http://www.inkscape.org/namespaces/inkscape"
   xmlns:sodipodi="http://sodipodi.sourceforge.net/DTD/sodipodi-0.dtd"
   xmlns="http://www.w3.org/2000/svg"
   xmlns:svg="http://www.w3.org/2000/svg">
  <sodipodi:namedview
     id="namedview7"
     pagecolor="#505050"
     bordercolor="#eeeeee"
     borderopacity="1"
     inkscape:pageshadow="0"
     inkscape:pageopacity="0"
     inkscape:pagecheckerboard="0"
     inkscape:document-units="mm"
     showgrid="false"
     inkscape:zoom="2.0353696"
     inkscape:cx="123.81044"
     inkscape:cy="55.518171"
     inkscape:window-width="1365"
     inkscape:window-height="741"
     inkscape:window-x="0"
     inkscape:window-y="1"
     inkscape:window-maximized="1"
     inkscape:current-layer="layer1"
     fit-margin-top="0"
     fit-margin-left="0"
     fit-margin-right="0"
     fit-margin-bottom="0" />
  <defs
     id="defs2" />
  <g
     inkscape:label="Capa 1"
     inkscape:groupmode="layer"
     id="layer1"
     transform="translate(-32.456151,-56.524114)">
    <g
       id="g831"
       transform="matrix(1.3454302,0,0,1.3454302,-11.211335,-19.525136)">
      <path
         d="m 32.456151,56.524114 h 0.44614 v 3.113573 l 1.323954,-1.164789 h 0.566719 l -1.432474,1.263664 1.492763,1.437297 h -0.578777 l -1.372185,-1.31913 v 1.31913 h -0.44614 z"
         id="path6949"
         style="font-size:4.9389px;line-height:1.25;stroke-width:0.264583"
         sodipodi:nodetypes="cccccccccccc" />
      <path
         d="m 36.68905,59.816143 q -0.537781,0 -0.745176,0.122991 -0.207395,0.12299 -0.207395,0.419613 0,0.236334 0.154341,0.376205 0.156752,0.13746 0.424436,0.13746 0.368971,0 0.590835,-0.26045 0.224277,-0.262861 0.224277,-0.696944 v -0.09888 z m 0.885047,-0.183279 v 1.540995 h -0.443729 v -0.409968 q -0.151929,0.245981 -0.378617,0.364148 -0.226688,0.115755 -0.554662,0.115755 -0.41479,0 -0.660771,-0.231511 -0.243568,-0.233922 -0.243568,-0.624597 0,-0.455787 0.303858,-0.687298 0.306269,-0.231511 0.911574,-0.231511 h 0.622186 v -0.04341 q 0,-0.30627 -0.202572,-0.472668 -0.200161,-0.16881 -0.564308,-0.16881 -0.231511,0 -0.450964,0.05547 -0.219453,0.05547 -0.422025,0.166398 V 58.59589 q 0.243568,-0.09405 0.472668,-0.139871 0.229099,-0.04823 0.446141,-0.04823 0.586012,0 0.8754,0.303858 0.289389,0.303858 0.289389,0.921221 z"
         id="path6951"
         style="font-size:4.9389px;line-height:1.25;stroke-width:0.264583" />
      <path
         d="m 38.143591,56.524114 h 0.446141 v 3.113573 l 1.323953,-1.164789 h 0.56672 l -1.432474,1.263664 1.492763,1.437297 h -0.578778 l -1.372184,-1.31913 v 1.31913 h -0.446141 z"
         id="path6953"
         style="font-size:4.9389px;line-height:1.25;stroke-width:0.264583"
         sodipodi:nodetypes="cccccccccccc" />
      <path
         d="m 42.376494,59.816143 q -0.537781,0 -0.745176,0.122991 -0.207395,0.12299 -0.207395,0.419613 0,0.236334 0.154341,0.376205 0.156752,0.13746 0.424436,0.13746 0.368971,0 0.590836,-0.26045 0.224276,-0.262861 0.224276,-0.696944 v -0.09888 z m 0.885047,-0.183279 v 1.540995 h -0.443729 v -0.409968 q -0.151929,0.245981 -0.378617,0.364148 -0.226688,0.115755 -0.554662,0.115755 -0.41479,0 -0.66077,-0.231511 -0.243569,-0.233922 -0.243569,-0.624597 0,-0.455787 0.303858,-0.687298 0.30627,-0.231511 0.911574,-0.231511 h 0.622186 v -0.04341 q 0,-0.30627 -0.202572,-0.472668 -0.200161,-0.16881 -0.564308,-0.16881 -0.231511,0 -0.450964,0.05547 -0.219453,0.05547 -0.422025,0.166398 V 58.59589 q 0.243568,-0.09405 0.472668,-0.139871 0.229099,-0.04823 0.446141,-0.04823 0.586012,0 0.8754,0.303858 0.289389,0.303858 0.289389,0.921221 z"
         id="path6955"
         style="font-size:4.9389px;line-height:1.25;stroke-width:0.264583" />
      <path
         d="m 45.005586,58.783991 q -0.356913,0 -0.564308,0.279742 -0.207395,0.277331 -0.207395,0.762057 0,0.484726 0.204983,0.764468 0.207395,0.277331 0.56672,0.277331 0.354501,0 0.561896,-0.279742 0.207395,-0.279743 0.207395,-0.762057 0,-0.479903 -0.207395,-0.759646 -0.207395,-0.282153 -0.561896,-0.282153 z m 0,-0.376206 q 0.578777,0 0.909162,0.376206 0.330386,0.376205 0.330386,1.041799 0,0.663182 -0.330386,1.041799 -0.330385,0.376205 -0.909162,0.376205 -0.581189,0 -0.911575,-0.376205 -0.327973,-0.378617 -0.327973,-1.041799 0,-0.665594 0.327973,-1.041799 0.330386,-0.376206 0.911575,-0.376206 z"
         id="path6957"
         style="font-size:4.9389px;line-height:1.25;stroke-width:0.264583" />
    </g>
  </g>
</svg>
