<?xml version="1.0" encoding="UTF-8" standalone="no"?>
<!-- Created with Inkscape (http://www.inkscape.org/) -->

<svg
   width="18.552114mm"
   height="6.3499999mm"
   viewBox="0 0 18.552114 6.3499999"
   version="1.1"
   id="svg5"
   inkscape:version="1.1.2 (0a00cf5339, 2022-02-04)"
   sodipodi:docname="kakao-logo.svg"
   xmlns:inkscape="http://www.inkscape.org/namespaces/inkscape"
   xmlns:sodipodi="http://sodipodi.sourceforge.net/DTD/sodipodi-0.dtd"
   xmlns="http://www.w3.org/2000/svg"
   xmlns:svg="http://www.w3.org/2000/svg">
  <sodipodi:namedview
     id="namedview7"
     pagecolor="#505050"
     bordercolor="#eeeeee"
     borderopacity="1"
     inkscape:pageshadow="0"
     inkscape:pageopacity="0"
     inkscape:pagecheckerboard="0"
     inkscape:document-units="mm"
     showgrid="false"
     inkscape:zoom="4.3141422"
     inkscape:cx="28.163189"
     inkscape:cy="-14.603135"
     inkscape:window-width="1365"
     inkscape:window-height="741"
     inkscape:window-x="0"
     inkscape:window-y="1"
     inkscape:window-maximized="1"
     inkscape:current-layer="layer1"
     fit-margin-top="0"
     fit-margin-left="0"
     fit-margin-right="0"
     fit-margin-bottom="0" />
  <defs
     id="defs2" />
  <g
     inkscape:label="Capa 1"
     inkscape:groupmode="layer"
     id="layer1"
     transform="translate(-32.456151,-56.524114)">
    <g
       id="g837"
       style="fill:#ffffff">
      <path
         d="m 32.456151,56.524114 h 0.60025 v 4.189095 l 1.781288,-1.567142 h 0.762481 l -1.927294,1.700172 2.008408,1.933782 H 34.90258 l -1.846179,-1.774797 v 1.774797 h -0.60025 z"
         id="path6949"
         style="font-size:4.9389px;line-height:1.25;stroke-width:0.355978;fill:#ffffff"
         sodipodi:nodetypes="cccccccccccc" />
      <path
         d="m 38.151221,60.953309 q -0.723547,0 -1.002582,0.165476 -0.279036,0.165475 -0.279036,0.56456 0,0.317971 0.207655,0.506158 0.210899,0.184942 0.571049,0.184942 0.496425,0 0.794927,-0.350417 0.301749,-0.353661 0.301749,-0.937689 V 60.953303 Z M 39.34199,60.70672 v 2.073301 h -0.597007 v -0.551583 q -0.204409,0.33095 -0.509402,0.489936 -0.304993,0.15574 -0.746259,0.15574 -0.558071,0 -0.889022,-0.311482 -0.327703,-0.314726 -0.327703,-0.840352 0,-0.613229 0.408819,-0.924711 0.412064,-0.311482 1.22646,-0.311482 h 0.837107 v -0.05841 q 0,-0.412065 -0.272546,-0.635942 -0.269303,-0.227122 -0.759237,-0.227122 -0.311482,0 -0.606741,0.07463 -0.295258,0.07463 -0.567805,0.223877 v -0.551582 q 0.327704,-0.126538 0.635942,-0.188187 0.308237,-0.06489 0.600252,-0.06489 0.788438,0 1.177789,0.40882 0.389353,0.40882 0.389353,1.239439 z"
         id="path6951"
         style="font-size:4.9389px;line-height:1.25;stroke-width:0.355978;fill:#ffffff" />
      <path
         d="m 40.108204,56.524114 h 0.600252 v 4.189095 l 1.781286,-1.567142 h 0.762482 l -1.927293,1.700172 2.008408,1.933782 h -0.778705 l -1.846178,-1.774797 v 1.774797 h -0.600252 z"
         id="path6953"
         style="font-size:4.9389px;line-height:1.25;stroke-width:0.355978;fill:#ffffff"
         sodipodi:nodetypes="cccccccccccc" />
      <path
         d="m 45.80328,60.953309 q -0.723547,0 -1.002582,0.165476 -0.279036,0.165475 -0.279036,0.56456 0,0.317971 0.207655,0.506158 0.210899,0.184942 0.571049,0.184942 0.496425,0 0.794929,-0.350417 0.301747,-0.353661 0.301747,-0.937689 v -0.133036 z m 1.190769,-0.246589 v 2.073301 h -0.597007 v -0.551583 q -0.20441,0.33095 -0.509402,0.489936 -0.304993,0.15574 -0.746259,0.15574 -0.558071,0 -0.88902,-0.311482 -0.327705,-0.314726 -0.327705,-0.840352 0,-0.613229 0.408819,-0.924711 0.412065,-0.311482 1.22646,-0.311482 h 0.837107 v -0.05841 q 0,-0.412065 -0.272546,-0.635942 -0.269303,-0.227122 -0.759237,-0.227122 -0.311482,0 -0.606741,0.07463 -0.295258,0.07463 -0.567805,0.223877 v -0.551582 q 0.327704,-0.126538 0.635942,-0.188187 0.308237,-0.06489 0.600251,-0.06489 0.788439,0 1.17779,0.40882 0.389353,0.40882 0.389353,1.239439 z"
         id="path6955"
         style="font-size:4.9389px;line-height:1.25;stroke-width:0.355978;fill:#ffffff" />
      <path
         d="m 49.34054,59.564621 q -0.480202,0 -0.759237,0.376373 -0.279036,0.37313 -0.279036,1.025295 0,0.652165 0.27579,1.028538 0.279036,0.373129 0.762483,0.373129 0.476956,0 0.755991,-0.376373 0.279036,-0.376375 0.279036,-1.025294 0,-0.645676 -0.279036,-1.022051 -0.279035,-0.379617 -0.755991,-0.379617 z m 0,-0.506159 q 0.778704,0 1.223214,0.506159 0.444511,0.506157 0.444511,1.401668 0,0.892265 -0.444511,1.401667 -0.44451,0.506158 -1.223214,0.506158 -0.78195,0 -1.226461,-0.506158 -0.441265,-0.509402 -0.441265,-1.401667 0,-0.895511 0.441265,-1.401668 0.444511,-0.506159 1.226461,-0.506159 z"
         id="path6957"
         style="font-size:4.9389px;line-height:1.25;stroke-width:0.355978;fill:#ffffff" />
    </g>
  </g>
</svg>
