<?xml version="1.0" encoding="UTF-8" standalone="no"?>
<!-- Created with Inkscape (http://www.inkscape.org/) -->

<svg
   width="1.8770667mm"
   height="8.4666662mm"
   viewBox="0 0 1.8770667 8.4666662"
   version="1.1"
   id="svg5"
   sodipodi:docname="the-point-menu-icon.svg"
   inkscape:version="1.1.2 (0a00cf5339, 2022-02-04)"
   xmlns:inkscape="http://www.inkscape.org/namespaces/inkscape"
   xmlns:sodipodi="http://sodipodi.sourceforge.net/DTD/sodipodi-0.dtd"
   xmlns="http://www.w3.org/2000/svg"
   xmlns:svg="http://www.w3.org/2000/svg">
  <sodipodi:namedview
     id="namedview7"
     pagecolor="#505050"
     bordercolor="#eeeeee"
     borderopacity="1"
     inkscape:pageshadow="0"
     inkscape:pageopacity="0"
     inkscape:pagecheckerboard="0"
     inkscape:document-units="mm"
     showgrid="false"
     inkscape:zoom="17.4375"
     inkscape:cx="3.125448"
     inkscape:cy="15.369176"
     inkscape:window-width="1365"
     inkscape:window-height="741"
     inkscape:window-x="0"
     inkscape:window-y="1"
     inkscape:window-maximized="1"
     inkscape:current-layer="layer1"
     fit-margin-top="0"
     fit-margin-left="0"
     fit-margin-right="0"
     fit-margin-bottom="0" />
  <defs
     id="defs2" />
  <g
     inkscape:label="Capa 1"
     inkscape:groupmode="layer"
     id="layer1"
     transform="translate(-97.230882,-136.47906)">
    <path
       id="path994"
       style="fill:#a3a3a3;stroke-width:0.047622;stroke-linecap:round;stroke-linejoin:round;paint-order:markers fill stroke;stop-color:#000000;fill-opacity:1"
       d="m 98.64464,139.02898 a 0.47522577,0.47522577 0 0 1 -0.475224,0.47521 0.47522577,0.47522577 0 0 1 -0.475225,-0.47521 0.47522577,0.47522577 0 0 1 0.475225,-0.47524 0.47522577,0.47522577 0 0 1 0.475224,0.47524 z" />
    <path
       id="path1079"
       style="fill:#a3a3a3;stroke-width:0.047622;stroke-linecap:round;stroke-linejoin:round;paint-order:markers fill stroke;stop-color:#000000;fill-opacity:1"
       d="m 98.64464,140.7124 a 0.47522577,0.47522577 0 0 1 -0.475224,0.47521 0.47522577,0.47522577 0 0 1 -0.475225,-0.47521 0.47522577,0.47522577 0 0 1 0.475225,-0.47524 0.47522577,0.47522577 0 0 1 0.475224,0.47524 z" />
    <path
       id="path1081"
       style="fill:#a3a3a3;stroke-width:0.047622;stroke-linecap:round;stroke-linejoin:round;paint-order:markers fill stroke;stop-color:#000000;fill-opacity:1"
       d="m 98.64464,142.39583 a 0.47522577,0.47522577 0 0 1 -0.475224,0.47521 0.47522577,0.47522577 0 0 1 -0.475225,-0.47521 0.47522577,0.47522577 0 0 1 0.475225,-0.47524 0.47522577,0.47522577 0 0 1 0.475224,0.47524 z" />
  </g>
</svg>
